<svg xmlns="http://www.w3.org/2000/svg" viewBox="0 0 512 512">
  <defs>
    <linearGradient id="bg" x1="0%" y1="0%" x2="100%" y2="100%">
      <stop offset="0%" stop-color="#fff2cf" />
      <stop offset="55%" stop-color="#ffcc66" />
      <stop offset="100%" stop-color="#c62828" />
    </linearGradient>
    <filter id="shadow" x="-20%" y="-20%" width="140%" height="140%">
      <feDropShadow dx="0" dy="14" stdDeviation="18" flood-color="#7a1e1e" flood-opacity="0.25" />
    </filter>
  </defs>

  <rect width="512" height="512" rx="120" fill="#fff8ea" />
  <g filter="url(#shadow)">
    <path
      d="M256 88c-95.5 0-173 77.5-173 173s77.5 173 173 173c38.5 0 74-12.6 102.7-33.9l65 23.5-21.1-67.2C421.2 327.9 429 295.2 429 261c0-95.5-77.5-173-173-173Z"
      fill="url(#bg)" />
  </g>

  <circle cx="256" cy="261" r="122" fill="#fffdf7" stroke="#8b1e1e" stroke-width="18" />

  <path d="M185 196h142" stroke="#c62828" stroke-width="24" stroke-linecap="round" />
  <path d="M185 231h142" stroke="#f4b400" stroke-width="24" stroke-linecap="round" />
  <path d="M185 266h142" stroke="#c62828" stroke-width="24" stroke-linecap="round" />
  <path d="M185 301h142" stroke="#f4b400" stroke-width="24" stroke-linecap="round" />
  <path d="M185 336h142" stroke="#c62828" stroke-width="24" stroke-linecap="round" />

  <circle cx="256" cy="261" r="20" fill="#8b1e1e" />
  <path d="M256 261V188" stroke="#8b1e1e" stroke-width="18" stroke-linecap="round" />
  <path d="M256 261l56 37" stroke="#8b1e1e" stroke-width="18" stroke-linecap="round" />

  <circle cx="256" cy="261" r="95" fill="none" stroke="#8b1e1e" stroke-width="8" stroke-dasharray="4 24" stroke-linecap="round" opacity="0.85" />
</svg>
